<svg xmlns="http://www.w3.org/2000/svg" viewBox="0 0 24 24" fill="none" stroke="#8b5cf6" stroke-width="1.5" stroke-linecap="round" stroke-linejoin="round">
  <defs>
    <mask id="dynamic-mask">
      <rect width="24" height="24" fill="white" stroke="none" />
      <g transform="translate(11, 1) scale(0.5)">
        <path d="M11.017 2.814a1 1 0 0 1 1.966 0l1.051 5.558a2 2 0 0 0 1.594 1.594l5.558 1.051a1 1 0 0 1 0 1.966l-5.558 1.051a2 2 0 0 0-1.594 1.594l-1.051 5.558a1 1 0 0 1-1.966 0l-1.051-5.558a2 2 0 0 0-1.594-1.594l-5.558-1.051a1 1 0 0 1 0-1.966l5.558-1.051a2 2 0 0 0 1.594-1.594z" fill="black" stroke="black" stroke-width="5" stroke-linejoin="round" />
      </g>
    </mask>
  </defs>
  <g mask="url(#dynamic-mask)">
    <path d="M16 6V4a2 2 0 0 0-2-2h-4a2 2 0 0 0-2 2v2" fill="none"/>
    <rect width="20" height="14" x="2" y="6" rx="2" fill="none"/>
    <path d="M22 13a18.15 18.15 0 0 1-20 0" fill="none"/>
    <path d="M12 12h.01" fill="none"/>
  </g>
  <g transform="translate(11, 1) scale(0.5)">
    <path d="M11.017 2.814a1 1 0 0 1 1.966 0l1.051 5.558a2 2 0 0 0 1.594 1.594l5.558 1.051a1 1 0 0 1 0 1.966l-5.558 1.051a2 2 0 0 0-1.594 1.594l-1.051 5.558a1 1 0 0 1-1.966 0l-1.051-5.558a2 2 0 0 0-1.594-1.594l-5.558-1.051a1 1 0 0 1 0-1.966l5.558-1.051a2 2 0 0 0 1.594-1.594z" fill="none" stroke-width="3" />
  </g>
</svg>